:SAMPLES-PER-SECOND 30
:FULLY-SPECIFIED
:DEGREES
109
root  -67.042 36.959 6.23994 -30.8025 -83.2229 32.6824
RightUpLeg  -33.201 -11.0603 -9.7176
RightLeg  48.1666 -0.207107 -0.608864
RightFoot  -10.7937 -0.0875669 3.12774
RightToes  5.82063e-011 0 -3.6325e-017
Spine  88.826 -22.1864 14.3084
Spine1  -6.94138 -7.19164 -3.88149
HEad  -36.6186 -16.0025 1.02145
LeftShoulder1  2.00753 -11.0748 -6.0308
LeftArm  -35.3496 -69.5392 -29.7848
LeftForeArm  -5.85237 -15.5359 -0.367731
LeftHand  -0.0610208 2.9232 2.25188
RightShoulder  0.47667 -1.582 18.522
RightArm  -84.7154 76.3947 -48.6117
RightForeArm  -26.4003 4.00972 3.6241
RightHand  -0.254015 9.74081 -2.3372
LeftUpLeg  -36.5924 6.91055 -11.8087
LeftLeg  35.826 -9.06553 -6.62702
LeftFoot  2.49643 -1.53064 12.4407
LeftToes  1.81573e-012 2.54609e-010 -3.45981e-011
110
root  -67.0664 37.332 6.37102 -34.4111 -84.0671 37.0854
RightUpLeg  -32.1901 -9.61171 -9.76833
RightLeg  44.56 -0.191772 -0.520785
RightFoot  -10.0421 -0.102858 3.06258
RightToes  5.82063e-011 0 -3.6325e-017
Spine  85.7213 -21.6664 14.6262
Spine1  -6.39166 -7.2298 -4.55515
HEad  -34.901 -16.473 1.07071
LeftShoulder1  2.13499 -11.0807 -7.01445
LeftArm  -36.0412 -65.5294 -33.5538
LeftForeArm  0.372558 -19.0916 -2.3323
LeftHand  -0.0577908 2.23052 1.68697
RightShoulder  0.477736 -1.60076 18.8625
RightArm  -60.2356 75.4135 -21.0542
RightForeArm  -24.4483 11.91 3.48637
RightHand  -0.113708 9.23876 -1.29887
LeftUpLeg  -35.7135 7.08616 -11.7607
LeftLeg  32.7041 -9.15043 -5.94442
LeftFoot  3.50129 -1.54277 11.6317
LeftToes  1.81573e-012 2.54609e-010 -3.45981e-011
111
root  -67.0717 37.6797 6.50162 -50.2715 -85.5118 53.0791
RightUpLeg  -30.8454 -7.40378 -9.75305
RightLeg  40.9542 -0.15854 -0.448595
RightFoot  -9.90528 -0.130661 4.98551
RightToes  5.82063e-011 0 -3.6325e-017
Spine  83.2693 -20.5105 14.1761
Spine1  -6.3448 -7.00567 -5.51472
HEad  -33.6473 -16.529 1.26759
LeftShoulder1  2.32588 -10.6299 -9.03994
LeftArm  -34.0597 -60.4588 -36.804
LeftForeArm  4.27355 -23.3474 -4.70372
LeftHand  -0.069182 2.05334 2.01438
RightShoulder  0.504422 -1.46416 18.4188
RightArm  -40.158 70.8684 7.09956
RightForeArm  -19.3346 20.5881 4.48778
RightHand  -0.157997 9.39079 -1.632
LeftUpLeg  -34.39 7.10066 -11.0358
LeftLeg  29.8773 -8.25204 -4.77168
LeftFoot  4.2913 -1.55427 11.099
LeftToes  1.81573e-012 2.54609e-010 -3.45981e-011
112
root  -67.137 37.9853 6.70334 -100.438 -86.4799 102.718
RightUpLeg  -29.4052 -4.91896 -10.0424
RightLeg  37.8633 0.91991 0.478084
RightFoot  -8.94887 -0.177883 5.67167
RightToes  5.82063e-011 0 -3.6325e-017
Spine  80.8626 -17.9801 13.0889
Spine1  -5.41083 -5.96228 -5.73724
HEad  -32.2318 -17.8407 0.552427
LeftShoulder1  2.3529 -9.95138 -10.2021
LeftArm  -30.4966 -55.2408 -42.1933
LeftForeArm  8.26716 -28.8511 -5.82272
LeftHand  -0.020445 2.44027 0.318424
RightShoulder  0.529322 -1.38377 18.6792
RightArm  -33.6299 63.9114 20.1512
RightForeArm  -13.2263 29.2463 7.10516
RightHand  -0.103462 8.67107 -1.24168
LeftUpLeg  -32.6121 5.73122 -9.7037
LeftLeg  27.7279 -5.09981 -2.57682
LeftFoot  4.57869 -1.35424 9.45021
LeftToes  1.81573e-012 2.54609e-010 -3.45981e-011
113
root  -67.2777 38.2647 7.07338 -140.973 -85.3964 142.098
RightUpLeg  -26.991 -4.28213 -9.70661
RightLeg  34.8393 3.17362 2.11158
RightFoot  -7.37714 -0.222634 4.98398
RightToes  5.82063e-011 0 -3.6325e-017
Spine  77.5919 -16.7538 12.9542
Spine1  -3.7369 -5.59763 -5.55918
HEad  -30.8206 -18.3848 -0.633843
LeftShoulder1  2.44149 -8.82825 -12.7833
LeftArm  -26.2467 -50.0961 -44.2414
LeftForeArm  8.92803 -33.8689 -7.03699
LeftHand  -0.0163479 2.67589 0.0817389
RightShoulder  0.613782 -0.988126 18.0153
RightArm  -28.1985 56.3663 29.3411
RightForeArm  -10.8746 37.4157 9.20225
RightHand  -0.177977 8.26214 -1.8926
LeftUpLeg  -30.7295 1.03644 -7.12827
LeftLeg  27.34 -0.283562 0.195806
LeftFoot  4.39383 -0.991735 6.99096
LeftToes  1.81573e-012 2.54609e-010 -3.45981e-011
114
root  -67.4149 38.3981 7.4267 -160.505 -82.1928 160.746
RightUpLeg  -25.7323 -3.56272 -9.62995
RightLeg  32.9446 5.92697 3.87641
RightFoot  -6.24108 -0.244514 4.52716
RightToes  5.82063e-011 0 -3.6325e-017
Spine  73.7123 -14.3769 12.087
Spine1  -1.76476 -5.00219 -4.57994
HEad  -28.4719 -19.0816 -2.22896
LeftShoulder1  2.304 -7.14323 -14.7604
LeftArm  -22.2118 -45.2156 -46.6145
LeftForeArm  9.97259 -38.856 -8.4066
LeftHand  -0.0166898 2.72244 0.0799008
RightShoulder  0.712114 -0.538374 17.5369
RightArm  -25.4365 48.7013 35.1916
RightForeArm  -8.8309 44.3781 11.533
RightHand  -0.232562 7.76863 -2.41129
LeftUpLeg  -30.2722 -4.08649 -4.46971
LeftLeg  28.9796 0.862961 0.847255
LeftFoot  4.74334 -0.527577 3.53581
LeftToes  1.81573e-012 2.54609e-010 -3.45981e-011
115
root  -67.5935 38.5679 7.75493 -168.451 -77.2958 167.273
RightUpLeg  -24.0787 -1.28389 -9.85333
RightLeg  30.8473 8.34874 5.1025
RightFoot  -5.33875 -0.288419 4.78926
RightToes  5.82063e-011 0 -3.6325e-017
Spine  70.5065 -11.3186 10.1627
Spine1  -0.0168742 -4.00169 -4.2783
HEad  -26.433 -19.2293 -3.16869
LeftShoulder1  2.13583 -5.92913 -15.9141
LeftArm  -18.7731 -39.8823 -47.8522
LeftForeArm  10.7643 -43.4032 -9.86735
LeftHand  -0.0130741 2.2699 0.0416065
RightShoulder  0.779276 -0.260228 17.443
RightArm  -23.6809 40.8718 40.0817
RightForeArm  -6.63391 50.1397 13.9725
RightHand  -0.332341 8.05101 -3.24126
LeftUpLeg  -28.8072 -9.989 -1.37491
LeftLeg  30.2233 -1.8659 -0.839436
LeftFoot  4.12292 -0.0609961 0.224923
LeftToes  1.81573e-012 2.54609e-010 -3.45981e-011
116
root  -67.8824 38.7445 8.17702 -173.607 -71.5048 171.35
RightUpLeg  -22.6311 1.57392 -9.80843
RightLeg  28.3213 11.1822 6.24532
RightFoot  -4.16015 -0.375348 5.53082
RightToes  5.82063e-011 0 -3.6325e-017
Spine  67.4646 -8.27302 8.62228
Spine1  0.456194 -2.48034 -4.12715
HEad  -24.2144 -20.6252 -5.24394
LeftShoulder1  2.05541 -5.08799 -17.2383
LeftArm  -14.8902 -34.467 -48.4646
LeftForeArm  11.4087 -47.3568 -11.3557
LeftHand  -0.0124169 1.83032 -0.0773256
RightShoulder  0.717957 -0.531266 18.6945
RightArm  -21.8781 33.5127 42.6998
RightForeArm  -4.61889 54.3261 16.1573
RightHand  -0.352077 7.79141 -3.46396
LeftUpLeg  -26.9314 -16.1385 1.65534
LeftLeg  31.3707 -7.56817 -4.62762
LeftFoot  1.30072 0.348623 -3.26949
LeftToes  1.81573e-012 2.54609e-010 -3.45981e-011
117
root  -68.2584 38.8631 8.66413 -174.875 -65.4656 173.029
RightUpLeg  -23.0951 3.929 -10.1643
RightLeg  26.2271 14.3789 7.40376
RightFoot  -2.86122 -0.449053 5.80116
RightToes  5.82063e-011 0 -3.6325e-017
Spine  61.8089 -6.08941 7.32991
Spine1  2.63306 -1.12741 -6.48257
HEad  -24.3773 -19.8208 -2.21568
LeftShoulder1  1.85514 -4.73868 -15.7861
LeftArm  -13.2669 -29.1829 -49.1357
LeftForeArm  12.9965 -50.7902 -12.7874
LeftHand  -0.0633135 0.226245 1.45328
RightShoulder  0.274862 -2.61664 24.4165
RightArm  -18.4996 29.8389 43.3687
RightForeArm  -3.18886 56.8305 17.7705
RightHand  -0.379604 7.52771 -3.7506
LeftUpLeg  -25.8832 -20.8337 3.58775
LeftLeg  32.4075 -13.7823 -8.92809
LeftFoot  -3.31338 0.309467 -3.95402
LeftToes  1.81573e-012 2.54609e-010 -3.45981e-011
118
root  -68.8319 38.9123 9.38247 -172.771 -59.3468 172.842
RightUpLeg  -25.329 3.20909 -11.2047
RightLeg  24.6654 20.4152 9.41559
RightFoot  -1.87905 -0.570006 6.69711
RightToes  5.82063e-011 0 -3.6325e-017
Spine  54.1318 -4.2199 6.20317
Spine1  4.14382 -0.587171 -6.1453
HEad  -25.5775 -11.5795 7.64992
LeftShoulder1  1.79524 -3.24393 -20.2463
LeftArm  -10.4381 -25.0339 -46.9165
LeftForeArm  14.5057 -53.9711 -14.3447
LeftHand  -0.0524659 0.358361 1.17113
RightShoulder  0.469146 -1.85921 22.6481
RightArm  -18.2628 22.0444 46.0312
RightForeArm  -0.408345 59.7601 19.844
RightHand  -0.530056 7.73739 -5.03276
LeftUpLeg  -25.8153 -24.4278 3.88569
LeftLeg  31.8579 -14.8334 -9.42496
LeftFoot  -7.40011 0.0909885 -1.12697
LeftToes  1.81573e-012 2.54609e-010 -3.45981e-011
119
root  -69.2101 39.1007 9.77103 -176.636 -52.2747 176.523
RightUpLeg  -23.5182 5.23742 -8.34525
RightLeg  19.9401 26.1393 7.55114
RightFoot  -0.338087 -0.929431 9.57099
RightToes  5.82063e-011 0 -3.6325e-017
Spine  50.6906 -1.64185 4.17368
Spine1  4.40973 1.09387 -5.34688
HEad  -25.4106 -3.4005 20.2329
LeftShoulder1  1.52829 -1.64423 -23.3046
LeftArm  -9.02874 -20.3691 -45.216
LeftForeArm  17.4963 -57.4606 -16.2875
LeftHand  -0.0800538 0.160551 1.78185
RightShoulder  0.505568 -1.69878 22.2299
RightArm  -16.9945 16.1555 47.9089
RightForeArm  3.48458 61.9119 21.4733
RightHand  -0.389102 7.40892 -3.87456
LeftUpLeg  -21.8145 -21.9368 4.39655
LeftLeg  29.3068 -13.1297 -7.55021
LeftFoot  -10.771 0.0485365 1.33893
LeftToes  1.81573e-012 2.54609e-010 -3.45981e-011
120
root  -69.6113 39.3059 10.3033 -177.814 -47.0302 177.492
RightUpLeg  -21.0897 0.517295 -5.72095
RightLeg  14.373 36.2939 5.23982
RightFoot  0.566663 -1.38373 13.2914
RightToes  5.82063e-011 0 -3.6325e-017
Spine  47.085 -1.36083 2.62191
Spine1  4.54014 1.17187 -6.88458
HEad  -25.7352 -6.50256 24.4261
LeftShoulder1  1.38113 -1.20637 -23.0561
LeftArm  -10.2662 -14.6952 -44.3105
LeftForeArm  21.126 -61.1908 -18.8101
LeftHand  -0.0682842 0.413792 1.53638
RightShoulder  0.291018 -2.54524 24.7813
RightArm  -13.9113 12.4139 48.2059
RightForeArm  3.6198 63.2342 22.9038
RightHand  -0.521858 7.79504 -4.96524
LeftUpLeg  -19.7367 -20.0951 3.33857
LeftLeg  27.5079 -9.08484 -4.76108
LeftFoot  -9.57593 0.0256065 2.13555
LeftToes  1.81573e-012 2.54609e-010 -3.45981e-011
121
root  -70.04 39.4297 10.8776 -178.879 -41.8628 177.844
RightUpLeg  -19.0224 -4.07659 -4.13696
RightLeg  9.20962 44.358 2.51996
RightFoot  0.0376467 -1.61565 16.1334
RightToes  5.82063e-011 0 -3.6325e-017
Spine  44.0196 -1.21381 1.2145
Spine1  4.69091 0.666833 -6.66439
HEad  -26.9446 -11.6604 27.0927
LeftShoulder1  1.26398 -0.637286 -24.2713
LeftArm  -10.6593 -10.8899 -42.6224
LeftForeArm  24.3045 -64.0326 -21.2391
LeftHand  -0.0193785 0.703968 0.410954
RightShoulder  0.193804 -2.86545 25.5779
RightArm  -12.2421 8.61208 48.6636
RightForeArm  6.11892 64.955 24.7051
RightHand  -0.476124 6.51 -4.97454
LeftUpLeg  -17.9712 -17.7072 2.07447
LeftLeg  26.8691 -6.21289 -3.06936
LeftFoot  -8.92461 0.00549725 2.28154
LeftToes  1.81573e-012 2.54609e-010 -3.45981e-011
